<svg width="512" height="512" viewBox="0 0 512 512" fill="none" xmlns="http://www.w3.org/2000/svg">
    <defs>
        <linearGradient id="goldGradient" x1="0%" y1="0%" x2="100%" y2="100%">
            <stop offset="0%" stop-color="#FF930F" />
            <stop offset="100%" stop-color="#FFF95B" />
        </linearGradient>

        <filter id="glow" x="-20%" y="-20%" width="140%" height="140%">
            <feGaussianBlur in="SourceAlpha" stdDeviation="10" />
            <feOffset dx="0" dy="5" result="offsetblur" />
            <feComponentTransfer>
                <feFuncA type="linear" slope="0.4" />
            </feComponentTransfer>
            <feMerge>
                <feMergeNode />
                <feMergeNode in="SourceGraphic" />
            </feMerge>
        </filter>
    </defs>

    <!-- Shifted upward to remove bottom clipping -->
    <g transform="translate(-20, -90) scale(1.15)">
        <path 
            d="M344 96C320.5 86.5 294 80 256 80C165 80 110 135 110 210C110 295 180 315 260 330C320 341.2 350 360 350 400C350 445 310 470 245 470C190 470 145 450 115 425L85 465C125 500 185 520 245 520C345 520 410 460 410 390C410 305 340 280 260 265C200 253.8 170 235 170 200C170 165 200 130 266 130C305 130 340 145 370 165L395 115C380 108 362 102 344 96Z"
            fill="url(#goldGradient)"
            filter="url(#glow)"
        />

        <path 
            d="M260 265C340 280 410 305 410 390C410 395 409.5 400 409 405C405 320 340 295 260 280C200 268.8 170 250 170 215C170 210 170.5 205 171 200C175 235 200 253.8 260 265Z"
            fill="#FFFFFF"
            fill-opacity="0.3"
        />
    </g>
</svg>
